#!OML:ASF E:\Style4\Style4.ASF
:FULLY-SPECIFIED
:DEGREES
1395
root -1.1702 17.9048 -2.32866 3.25074 15.4701 -0.526032
lowerback 9.31696 4.17981 -1.98069
upperback 5.39928 5.40563 -2.95238
thorax 0.511662 2.7213 -2.40896
lowerneck 1.0173 -5.10502 -7.28422
upperneck 6.36361 -6.99409 4.91864
head 2.34624 -3.54574 2.73298
rclavicle 1.59028e-014 2.22639e-014
rhumerus -6.27234 -3.89214 -24.4173
rradius 71.1327
rwrist 5.70188
rhand -14.7221 9.53541
rfingers 7.12502
rthumb 11.4328 -20.1329
lclavicle 1.59028e-014 2.22639e-014
lhumerus -35.9809 -13.272 57.6064
lradius 94.2615
lwrist 7.87702
lhand -17.9484 31.8338
lfingers 7.12502
lthumb 8.32013 61.6499
rfemur -14.7232 -6.59253 22.9452
rtibia 28.5802
rfoot -18.146 -18.8941
rtoes -1.68519
lfemur -17.5262 -7.58374 -14.4669
ltibia 27.9783
lfoot -13.9764 3.68253
ltoes -18.6125
1396
root -1.1938 17.8975 -2.33251 3.29766 15.747 -0.394383
lowerback 9.50828 4.31474 -1.84854
upperback 5.57495 5.59576 -3.10308
thorax 0.624856 2.82443 -2.66092
lowerneck 0.37143 -5.19996 -7.13526
upperneck 6.63906 -7.08953 4.9383
head 2.5566 -3.58283 2.69182
rclavicle -2.54444e-014 9.54166e-015
rhumerus -5.46556 -4.8992 -24.201
rradius 69.2696
rwrist 5.82219
rhand -14.7151 9.82309
rfingers 7.12502
rthumb 11.4395 -19.8448
lclavicle -2.54444e-014 9.54166e-015
lhumerus -35.8793 -12.923 57.0521
lradius 93.8563
lwrist 7.68059
lhand -17.5712 32.5241
lfingers 7.12502
lthumb 8.68414 62.3255
rfemur -14.9276 -6.75996 22.8905
rtibia 28.8984
rfoot -18.1453 -19.0019
rtoes -2.18839
lfemur -17.7074 -7.66833 -14.5271
ltibia 28.1032
lfoot -13.9784 3.60475
ltoes -18.7697
1397
root -1.21296 17.8913 -2.33585 3.33344 16.0045 -0.234434
lowerback 9.59712 4.40543 -1.8452
upperback 5.52301 5.71084 -3.16555
thorax 0.533436 2.88349 -2.74735
lowerneck 0.887096 -5.15263 -7.06324
upperneck 6.57528 -7.05716 4.95833
head 2.43635 -3.56981 2.69953
rclavicle -6.42074e-014 5.1684e-014
rhumerus -4.75924 -5.21878 -23.9269
rradius 67.6376
rwrist 5.80682
rhand -14.6748 10.2439
rfingers 7.12502
rthumb 11.4784 -19.4219
lclavicle -6.42074e-014 5.1684e-014
lhumerus -36.5376 -12.676 56.6468
lradius 93.7035
lwrist 7.41019
lhand -16.8883 33.464
lfingers 7.12502
lthumb 9.34316 63.237
rfemur -15.1019 -6.92736 22.7851
rtibia 29.2183
rfoot -18.2184 -19.0698
rtoes -2.42902
lfemur -17.8609 -7.81223 -14.6296
ltibia 28.2372
lfoot -13.9762 3.51589
ltoes -18.524
1398
root -1.2306 17.8832 -2.34218 3.34533 16.2687 -0.162071
lowerback 9.73 4.43839 -1.68652
upperback 5.65364 5.76883 -3.20719
thorax 0.619758 2.91899 -2.88771
lowerneck 0.671804 -5.12218 -7.02751
upperneck 6.60017 -7.00472 4.96564
head 2.4789 -3.54019 2.69171
rclavicle 5.82439e-014 -7.95139e-016
rhumerus -3.82351 -5.70281 -23.6581
rradius 66.0821
rwrist 5.9147
rhand -14.8595 10.6763
rfingers 7.12502
rthumb 11.3002 -18.9993
lclavicle 5.82439e-014 -7.95139e-016
lhumerus -36.8745 -12.1595 56.1335
lradius 93.5244
lwrist 6.86045
lhand -16.5355 33.4998
lfingers 7.12502
lthumb 9.68349 63.2572
rfemur -15.2973 -7.04945 22.7712
rtibia 29.5632
rfoot -18.4077 -19.1309
rtoes -2.07543
lfemur -18.0267 -7.90769 -14.6456
ltibia 28.3588
lfoot -13.8997 3.41495
ltoes -18.6627
1399
root -1.24698 17.874 -2.35048 3.35483 16.4837 -0.123056
lowerback 9.80024 4.5393 -1.42211
upperback 5.77328 5.92794 -3.23788
thorax 0.743046 3.00811 -3.07871
lowerneck 0.645685 -5.15772 -7.00338
upperneck 6.58647 -7.05309 5.01496
head 2.4837 -3.56204 2.70193
rclavicle 4.19436e-014 -2.94201e-014
rhumerus -3.15407 -6.23427 -23.3264
rradius 64.624
rwrist 5.98194
rhand -15.062 10.9489
rfingers 7.12502
rthumb 11.105 -18.7373
lclavicle 4.19436e-014 -2.94201e-014
lhumerus -37.0352 -11.7968 55.7088
lradius 93.1254
lwrist 6.39021
lhand -16.5098 33.0006
lfingers 7.12502
lthumb 9.7083 62.7569
rfemur -15.5184 -7.14349 22.7866
rtibia 29.9161
rfoot -18.5084 -19.1871
rtoes -2.05847
lfemur -18.1935 -7.96504 -14.6313
ltibia 28.4725
lfoot -13.7871 3.23961
ltoes -18.2932
1400
root -1.26194 17.8656 -2.35493 3.41254 16.6604 0.060732
lowerback 9.74294 4.73219 -1.27437
upperback 5.81182 6.20112 -3.3116
thorax 0.851296 3.15196 -3.25173
lowerneck 1.17549 -5.25385 -6.84784
upperneck 6.4142 -7.21219 5.07196
head 2.33601 -3.64156 2.70212
rclavicle 1.04163e-013 -2.62396e-014
rhumerus -2.83326 -6.83463 -23.0311
rradius 63.2374
rwrist 6.0359
rhand -15.1002 11.1909
rfingers 7.12502
rthumb 11.0681 -18.4972
lclavicle 1.04163e-013 -2.62396e-014
lhumerus -37.1179 -11.7441 55.3481
lradius 92.6322
lwrist 6.0416
lhand -16.4341 32.814
lfingers 7.12502
lthumb 9.78131 62.5668
rfemur -15.7341 -7.2567 22.6384
rtibia 30.2817
rfoot -18.6822 -19.1686
rtoes -1.79856
lfemur -18.331 -7.99481 -14.7927
ltibia 28.5908
lfoot -13.7129 3.16064
ltoes -18.4338
1401
root -1.27697 17.8596 -2.35907 3.50662 16.7866 0.286188
lowerback 9.75266 4.91443 -1.23422
upperback 5.83094 6.44745 -3.36005
thorax 0.888807 3.27851 -3.34402
lowerneck 1.5145 -5.33073 -6.73371
upperneck 6.3033 -7.33357 5.12047
head 2.243 -3.70176 2.70377
rclavicle 4.09496e-014 -2.78299e-014
rhumerus -2.25661 -7.47167 -22.8179
rradius 61.7351
rwrist 5.93875
rhand -15.2533 11.2823
rfingers 7.12502
rthumb 10.9205 -18.4138
lclavicle 4.09496e-014 -2.78299e-014
lhumerus -37.26 -11.6378 54.9884
lradius 92.1882
lwrist 5.66766
lhand -16.4699 32.7411
lfingers 7.12502
lthumb 9.74684 62.4955
rfemur -15.9881 -7.29528 22.4456
rtibia 30.6567
rfoot -18.8912 -19.1389
rtoes -1.66862
lfemur -18.4879 -7.97935 -14.9892
ltibia 28.7003
lfoot -13.7187 3.10107
ltoes -18.6737
1402
root -1.28985 17.8523 -2.36704 3.558 16.9093 0.463068
lowerback 9.855 5.03124 -1.19437
upperback 5.89703 6.60507 -3.33469
thorax 0.912028 3.35931 -3.35906
lowerneck 1.56377 -5.35238 -6.72496
upperneck 6.23242 -7.36476 5.15235
head 2.21389 -3.71676 2.71392
rclavicle 6.1822e-014 -3.97569e-014
rhumerus -1.47296 -7.83003 -22.4937
rradius 60.2878
rwrist 5.42623
rhand -15.6358 11.197
rfingers 7.12502
rthumb 10.5515 -18.5181
lclavicle 6.1822e-014 -3.97569e-014
lhumerus -37.5684 -11.2756 54.6376
lradius 91.8442
lwrist 5.12958
lhand -16.612 32.6312
lfingers 7.12502
lthumb 9.60972 62.3921
rfemur -16.2286 -7.30985 22.292
rtibia 31.0487
rfoot -19.0745 -19.0914
rtoes -1.68658
lfemur -18.6158 -8.01705 -15.1295
ltibia 28.799
lfoot -13.7325 3.00281
ltoes -18.3898
1403
root -1.30006 17.8428 -2.37465 3.57278 17.0181 0.56524
lowerback 9.94684 5.14433 -1.02507
upperback 5.97956 6.76973 -3.30468
thorax 0.97308 3.44766 -3.43877
lowerneck 1.56022 -5.39718 -6.73773
upperneck 6.17449 -7.42733 5.23813
head 2.20458 -3.74642 2.74389
rclavicle 6.95746e-015 -2.38542e-014
rhumerus -0.748637 -8.03999 -22.1099
rradius 58.8468
rwrist 4.91513
rhand -16.1046 11.2101
rfingers 7.12502
rthumb 10.0993 -18.5276
lclavicle 6.95746e-015 -2.38542e-014
lhumerus -37.8481 -10.8997 54.2992
lradius 91.5575
lwrist 4.51766
lhand -16.6198 32.6983
lfingers 7.12502
lthumb 9.60215 62.4595
rfemur -16.4523 -7.33277 22.2098
rtibia 31.4663
rfoot -19.2705 -19.0879
rtoes -1.53647
lfemur -18.7326 -8.02053 -15.2015
ltibia 28.9122
lfoot -13.7803 2.87897
ltoes -17.9842
1404
root -1.30797 17.8336 -2.38138 3.60043 17.1025 0.691869
lowerback 10.058 5.27075 -0.81286
upperback 6.03213 6.95402 -3.30206
thorax 1.00314 3.5475 -3.57552
lowerneck 1.60735 -5.45938 -6.6421
upperneck 6.09116 -7.51219 5.26693
head 2.17096 -3.78628 2.7357
rclavicle -6.89783e-014 2.98177e-014
rhumerus -0.0941036 -8.57446 -21.9383
rradius 57.4186
rwrist 4.86606
rhand -16.4275 11.3599
rfingers 7.12502
rthumb 9.78775 -18.3926
lclavicle -6.89783e-014 2.98177e-014
lhumerus -38.1136 -10.6555 53.9809
lradius 91.3341
lwrist 4.09322
lhand -16.6558 32.7472
lfingers 7.12502
lthumb 9.56748 62.51
rfemur -16.6918 -7.38259 22.0953
rtibia 31.9099
rfoot -19.5423 -19.0598
rtoes -1.32371
lfemur -18.858 -7.94957 -15.3181
ltibia 29.0552
lfoot -13.804 2.76398
ltoes -17.9859
